<svg xmlns="http://www.w3.org/2000/svg" width="760" height="520" viewBox="0 0 760 520" font-family="-apple-system,BlinkMacSystemFont,Segoe UI,Helvetica,Arial,sans-serif"><text x="0" y="20" fill="#c9d1d9" font-size="15" font-weight="600">Companies with the most open remote roles</text><text x="162" y="57" fill="#c9d1d9" font-size="12.5" text-anchor="end">Samsara</text><rect x="170" y="46" width="500.0" height="17" rx="3" fill="#58a6ff"/><text x="677.0" y="57" fill="#8b949e" font-size="11.5">208</text><text x="162" y="83" fill="#c9d1d9" font-size="12.5" text-anchor="end">ElevenLabs</text><rect x="170" y="72" width="471.2" height="17" rx="3" fill="#3fb950"/><text x="648.2" y="83" fill="#8b949e" font-size="11.5">196</text><text x="162" y="109" fill="#c9d1d9" font-size="12.5" text-anchor="end">GitLab</text><rect x="170" y="98" width="459.1" height="17" rx="3" fill="#d29922"/><text x="636.1" y="109" fill="#8b949e" font-size="11.5">191</text><text x="162" y="135" fill="#c9d1d9" font-size="12.5" text-anchor="end">Coinbase</text><rect x="170" y="124" width="401.4" height="17" rx="3" fill="#bc8cff"/><text x="578.4" y="135" fill="#8b949e" font-size="11.5">167</text><text x="162" y="161" fill="#c9d1d9" font-size="12.5" text-anchor="end">Grafana Labs</text><rect x="170" y="150" width="322.1" height="17" rx="3" fill="#f778ba"/><text x="499.1" y="161" fill="#8b949e" font-size="11.5">134</text><text x="162" y="187" fill="#c9d1d9" font-size="12.5" text-anchor="end">Instacart</text><rect x="170" y="176" width="264.4" height="17" rx="3" fill="#39c5cf"/><text x="441.4" y="187" fill="#8b949e" font-size="11.5">110</text><text x="162" y="213" fill="#c9d1d9" font-size="12.5" text-anchor="end">Reddit</text><rect x="170" y="202" width="262.0" height="17" rx="3" fill="#ff7b72"/><text x="439.0" y="213" fill="#8b949e" font-size="11.5">109</text><text x="162" y="239" fill="#c9d1d9" font-size="12.5" text-anchor="end">Cohere</text><rect x="170" y="228" width="242.8" height="17" rx="3" fill="#58a6ff"/><text x="419.8" y="239" fill="#8b949e" font-size="11.5">101</text><text x="162" y="265" fill="#c9d1d9" font-size="12.5" text-anchor="end">Stripe</text><rect x="170" y="254" width="235.6" height="17" rx="3" fill="#3fb950"/><text x="412.6" y="265" fill="#8b949e" font-size="11.5">98</text><text x="162" y="291" fill="#c9d1d9" font-size="12.5" text-anchor="end">Pinterest</text><rect x="170" y="280" width="233.2" height="17" rx="3" fill="#d29922"/><text x="410.2" y="291" fill="#8b949e" font-size="11.5">97</text><text x="162" y="317" fill="#c9d1d9" font-size="12.5" text-anchor="end">Chainguard</text><rect x="170" y="306" width="201.9" height="17" rx="3" fill="#bc8cff"/><text x="378.9" y="317" fill="#8b949e" font-size="11.5">84</text><text x="162" y="343" fill="#c9d1d9" font-size="12.5" text-anchor="end">Anthropic</text><rect x="170" y="332" width="199.5" height="17" rx="3" fill="#f778ba"/><text x="376.5" y="343" fill="#8b949e" font-size="11.5">83</text><text x="162" y="369" fill="#c9d1d9" font-size="12.5" text-anchor="end">Fivetran</text><rect x="170" y="358" width="194.7" height="17" rx="3" fill="#39c5cf"/><text x="371.7" y="369" fill="#8b949e" font-size="11.5">81</text><text x="162" y="395" fill="#c9d1d9" font-size="12.5" text-anchor="end">Vanta</text><rect x="170" y="384" width="168.3" height="17" rx="3" fill="#ff7b72"/><text x="345.3" y="395" fill="#8b949e" font-size="11.5">70</text><text x="162" y="421" fill="#c9d1d9" font-size="12.5" text-anchor="end">Databricks</text><rect x="170" y="410" width="161.1" height="17" rx="3" fill="#58a6ff"/><text x="338.1" y="421" fill="#8b949e" font-size="11.5">67</text><text x="162" y="447" fill="#c9d1d9" font-size="12.5" text-anchor="end">Abnormal Security</text><rect x="170" y="436" width="144.2" height="17" rx="3" fill="#3fb950"/><text x="321.2" y="447" fill="#8b949e" font-size="11.5">60</text><text x="162" y="473" fill="#c9d1d9" font-size="12.5" text-anchor="end">Cribl</text><rect x="170" y="462" width="144.2" height="17" rx="3" fill="#d29922"/><text x="321.2" y="473" fill="#8b949e" font-size="11.5">60</text><text x="162" y="499" fill="#c9d1d9" font-size="12.5" text-anchor="end">Snowflake</text><rect x="170" y="488" width="141.8" height="17" rx="3" fill="#bc8cff"/><text x="318.8" y="499" fill="#8b949e" font-size="11.5">59</text></svg>