<svg xmlns="http://www.w3.org/2000/svg" width="760" height="520" viewBox="0 0 760 520" font-family="-apple-system,BlinkMacSystemFont,Segoe UI,Helvetica,Arial,sans-serif"><text x="0" y="20" fill="#c9d1d9" font-size="15" font-weight="600">Companies with the most open remote roles</text><text x="162" y="57" fill="#c9d1d9" font-size="12.5" text-anchor="end">Samsara</text><rect x="170" y="46" width="500.0" height="17" rx="3" fill="#58a6ff"/><text x="677.0" y="57" fill="#8b949e" font-size="11.5">209</text><text x="162" y="83" fill="#c9d1d9" font-size="12.5" text-anchor="end">GitLab</text><rect x="170" y="72" width="406.7" height="17" rx="3" fill="#3fb950"/><text x="583.7" y="83" fill="#8b949e" font-size="11.5">170</text><text x="162" y="109" fill="#c9d1d9" font-size="12.5" text-anchor="end">ElevenLabs</text><rect x="170" y="98" width="401.9" height="17" rx="3" fill="#d29922"/><text x="578.9" y="109" fill="#8b949e" font-size="11.5">168</text><text x="162" y="135" fill="#c9d1d9" font-size="12.5" text-anchor="end">Coinbase</text><rect x="170" y="124" width="397.1" height="17" rx="3" fill="#bc8cff"/><text x="574.1" y="135" fill="#8b949e" font-size="11.5">166</text><text x="162" y="161" fill="#c9d1d9" font-size="12.5" text-anchor="end">Grafana Labs</text><rect x="170" y="150" width="320.6" height="17" rx="3" fill="#f778ba"/><text x="497.6" y="161" fill="#8b949e" font-size="11.5">134</text><text x="162" y="187" fill="#c9d1d9" font-size="12.5" text-anchor="end">Instacart</text><rect x="170" y="176" width="270.3" height="17" rx="3" fill="#39c5cf"/><text x="447.3" y="187" fill="#8b949e" font-size="11.5">113</text><text x="162" y="213" fill="#c9d1d9" font-size="12.5" text-anchor="end">Reddit</text><rect x="170" y="202" width="265.6" height="17" rx="3" fill="#ff7b72"/><text x="442.6" y="213" fill="#8b949e" font-size="11.5">111</text><text x="162" y="239" fill="#c9d1d9" font-size="12.5" text-anchor="end">Stripe</text><rect x="170" y="228" width="263.2" height="17" rx="3" fill="#58a6ff"/><text x="440.2" y="239" fill="#8b949e" font-size="11.5">110</text><text x="162" y="265" fill="#c9d1d9" font-size="12.5" text-anchor="end">Cohere</text><rect x="170" y="254" width="246.4" height="17" rx="3" fill="#3fb950"/><text x="423.4" y="265" fill="#8b949e" font-size="11.5">103</text><text x="162" y="291" fill="#c9d1d9" font-size="12.5" text-anchor="end">Chainguard</text><rect x="170" y="280" width="198.6" height="17" rx="3" fill="#d29922"/><text x="375.6" y="291" fill="#8b949e" font-size="11.5">83</text><text x="162" y="317" fill="#c9d1d9" font-size="12.5" text-anchor="end">Pinterest</text><rect x="170" y="306" width="174.6" height="17" rx="3" fill="#bc8cff"/><text x="351.6" y="317" fill="#8b949e" font-size="11.5">73</text><text x="162" y="343" fill="#c9d1d9" font-size="12.5" text-anchor="end">Abnormal Security</text><rect x="170" y="332" width="169.9" height="17" rx="3" fill="#f778ba"/><text x="346.9" y="343" fill="#8b949e" font-size="11.5">71</text><text x="162" y="369" fill="#c9d1d9" font-size="12.5" text-anchor="end">Databricks</text><rect x="170" y="358" width="169.9" height="17" rx="3" fill="#39c5cf"/><text x="346.9" y="369" fill="#8b949e" font-size="11.5">71</text><text x="162" y="395" fill="#c9d1d9" font-size="12.5" text-anchor="end">Vanta</text><rect x="170" y="384" width="148.3" height="17" rx="3" fill="#ff7b72"/><text x="325.3" y="395" fill="#8b949e" font-size="11.5">62</text><text x="162" y="421" fill="#c9d1d9" font-size="12.5" text-anchor="end">Mercury</text><rect x="170" y="410" width="138.8" height="17" rx="3" fill="#58a6ff"/><text x="315.8" y="421" fill="#8b949e" font-size="11.5">58</text><text x="162" y="447" fill="#c9d1d9" font-size="12.5" text-anchor="end">Cribl</text><rect x="170" y="436" width="134.0" height="17" rx="3" fill="#3fb950"/><text x="311.0" y="447" fill="#8b949e" font-size="11.5">56</text><text x="162" y="473" fill="#c9d1d9" font-size="12.5" text-anchor="end">Datadog</text><rect x="170" y="462" width="134.0" height="17" rx="3" fill="#d29922"/><text x="311.0" y="473" fill="#8b949e" font-size="11.5">56</text><text x="162" y="499" fill="#c9d1d9" font-size="12.5" text-anchor="end">Supabase</text><rect x="170" y="488" width="131.6" height="17" rx="3" fill="#bc8cff"/><text x="308.6" y="499" fill="#8b949e" font-size="11.5">55</text></svg>