<svg xmlns="http://www.w3.org/2000/svg" width="760" height="520" viewBox="0 0 760 520" font-family="-apple-system,BlinkMacSystemFont,Segoe UI,Helvetica,Arial,sans-serif"><text x="0" y="20" fill="#c9d1d9" font-size="15" font-weight="600">Companies with the most open remote roles</text><text x="162" y="57" fill="#c9d1d9" font-size="12.5" text-anchor="end">Samsara</text><rect x="170" y="46" width="500.0" height="17" rx="3" fill="#58a6ff"/><text x="677.0" y="57" fill="#8b949e" font-size="11.5">226</text><text x="162" y="83" fill="#c9d1d9" font-size="12.5" text-anchor="end">GitLab</text><rect x="170" y="72" width="418.1" height="17" rx="3" fill="#3fb950"/><text x="595.1" y="83" fill="#8b949e" font-size="11.5">189</text><text x="162" y="109" fill="#c9d1d9" font-size="12.5" text-anchor="end">ElevenLabs</text><rect x="170" y="98" width="413.7" height="17" rx="3" fill="#d29922"/><text x="590.7" y="109" fill="#8b949e" font-size="11.5">187</text><text x="162" y="135" fill="#c9d1d9" font-size="12.5" text-anchor="end">Coinbase</text><rect x="170" y="124" width="387.2" height="17" rx="3" fill="#bc8cff"/><text x="564.2" y="135" fill="#8b949e" font-size="11.5">175</text><text x="162" y="161" fill="#c9d1d9" font-size="12.5" text-anchor="end">Grafana Labs</text><rect x="170" y="150" width="287.6" height="17" rx="3" fill="#f778ba"/><text x="464.6" y="161" fill="#8b949e" font-size="11.5">130</text><text x="162" y="187" fill="#c9d1d9" font-size="12.5" text-anchor="end">Reddit</text><rect x="170" y="176" width="254.4" height="17" rx="3" fill="#39c5cf"/><text x="431.4" y="187" fill="#8b949e" font-size="11.5">115</text><text x="162" y="213" fill="#c9d1d9" font-size="12.5" text-anchor="end">Stripe</text><rect x="170" y="202" width="236.7" height="17" rx="3" fill="#ff7b72"/><text x="413.7" y="213" fill="#8b949e" font-size="11.5">107</text><text x="162" y="239" fill="#c9d1d9" font-size="12.5" text-anchor="end">Instacart</text><rect x="170" y="228" width="232.3" height="17" rx="3" fill="#58a6ff"/><text x="409.3" y="239" fill="#8b949e" font-size="11.5">105</text><text x="162" y="265" fill="#c9d1d9" font-size="12.5" text-anchor="end">Cohere</text><rect x="170" y="254" width="223.5" height="17" rx="3" fill="#3fb950"/><text x="400.5" y="265" fill="#8b949e" font-size="11.5">101</text><text x="162" y="291" fill="#c9d1d9" font-size="12.5" text-anchor="end">Chainguard</text><rect x="170" y="280" width="177.0" height="17" rx="3" fill="#d29922"/><text x="354.0" y="291" fill="#8b949e" font-size="11.5">80</text><text x="162" y="317" fill="#c9d1d9" font-size="12.5" text-anchor="end">Pinterest</text><rect x="170" y="306" width="165.9" height="17" rx="3" fill="#bc8cff"/><text x="342.9" y="317" fill="#8b949e" font-size="11.5">75</text><text x="162" y="343" fill="#c9d1d9" font-size="12.5" text-anchor="end">Databricks</text><rect x="170" y="332" width="154.9" height="17" rx="3" fill="#f778ba"/><text x="331.9" y="343" fill="#8b949e" font-size="11.5">70</text><text x="162" y="369" fill="#c9d1d9" font-size="12.5" text-anchor="end">Abnormal Security</text><rect x="170" y="358" width="146.0" height="17" rx="3" fill="#39c5cf"/><text x="323.0" y="369" fill="#8b949e" font-size="11.5">66</text><text x="162" y="395" fill="#c9d1d9" font-size="12.5" text-anchor="end">Vanta</text><rect x="170" y="384" width="139.4" height="17" rx="3" fill="#ff7b72"/><text x="316.4" y="395" fill="#8b949e" font-size="11.5">63</text><text x="162" y="421" fill="#c9d1d9" font-size="12.5" text-anchor="end">Mercury</text><rect x="170" y="410" width="135.0" height="17" rx="3" fill="#58a6ff"/><text x="312.0" y="421" fill="#8b949e" font-size="11.5">61</text><text x="162" y="447" fill="#c9d1d9" font-size="12.5" text-anchor="end">Supabase</text><rect x="170" y="436" width="130.5" height="17" rx="3" fill="#3fb950"/><text x="307.5" y="447" fill="#8b949e" font-size="11.5">59</text><text x="162" y="473" fill="#c9d1d9" font-size="12.5" text-anchor="end">Anthropic</text><rect x="170" y="462" width="121.7" height="17" rx="3" fill="#d29922"/><text x="298.7" y="473" fill="#8b949e" font-size="11.5">55</text><text x="162" y="499" fill="#c9d1d9" font-size="12.5" text-anchor="end">Cribl</text><rect x="170" y="488" width="121.7" height="17" rx="3" fill="#bc8cff"/><text x="298.7" y="499" fill="#8b949e" font-size="11.5">55</text></svg>