<svg xmlns="http://www.w3.org/2000/svg" width="760" height="520" viewBox="0 0 760 520" font-family="-apple-system,BlinkMacSystemFont,Segoe UI,Helvetica,Arial,sans-serif"><text x="0" y="20" fill="#c9d1d9" font-size="15" font-weight="600">Companies with the most open remote roles</text><text x="162" y="57" fill="#c9d1d9" font-size="12.5" text-anchor="end">Samsara</text><rect x="170" y="46" width="500.0" height="17" rx="3" fill="#58a6ff"/><text x="677.0" y="57" fill="#8b949e" font-size="11.5">205</text><text x="162" y="83" fill="#c9d1d9" font-size="12.5" text-anchor="end">GitLab</text><rect x="170" y="72" width="434.1" height="17" rx="3" fill="#3fb950"/><text x="611.1" y="83" fill="#8b949e" font-size="11.5">178</text><text x="162" y="109" fill="#c9d1d9" font-size="12.5" text-anchor="end">Coinbase</text><rect x="170" y="98" width="431.7" height="17" rx="3" fill="#d29922"/><text x="608.7" y="109" fill="#8b949e" font-size="11.5">177</text><text x="162" y="135" fill="#c9d1d9" font-size="12.5" text-anchor="end">ElevenLabs</text><rect x="170" y="124" width="365.9" height="17" rx="3" fill="#bc8cff"/><text x="542.9" y="135" fill="#8b949e" font-size="11.5">150</text><text x="162" y="161" fill="#c9d1d9" font-size="12.5" text-anchor="end">Instacart</text><rect x="170" y="150" width="295.1" height="17" rx="3" fill="#f778ba"/><text x="472.1" y="161" fill="#8b949e" font-size="11.5">121</text><text x="162" y="187" fill="#c9d1d9" font-size="12.5" text-anchor="end">Grafana Labs</text><rect x="170" y="176" width="292.7" height="17" rx="3" fill="#39c5cf"/><text x="469.7" y="187" fill="#8b949e" font-size="11.5">120</text><text x="162" y="213" fill="#c9d1d9" font-size="12.5" text-anchor="end">Reddit</text><rect x="170" y="202" width="270.7" height="17" rx="3" fill="#ff7b72"/><text x="447.7" y="213" fill="#8b949e" font-size="11.5">111</text><text x="162" y="239" fill="#c9d1d9" font-size="12.5" text-anchor="end">Stripe</text><rect x="170" y="228" width="265.9" height="17" rx="3" fill="#58a6ff"/><text x="442.9" y="239" fill="#8b949e" font-size="11.5">109</text><text x="162" y="265" fill="#c9d1d9" font-size="12.5" text-anchor="end">Cohere</text><rect x="170" y="254" width="224.4" height="17" rx="3" fill="#3fb950"/><text x="401.4" y="265" fill="#8b949e" font-size="11.5">92</text><text x="162" y="291" fill="#c9d1d9" font-size="12.5" text-anchor="end">Chainguard</text><rect x="170" y="280" width="202.4" height="17" rx="3" fill="#d29922"/><text x="379.4" y="291" fill="#8b949e" font-size="11.5">83</text><text x="162" y="317" fill="#c9d1d9" font-size="12.5" text-anchor="end">Pinterest</text><rect x="170" y="306" width="170.7" height="17" rx="3" fill="#bc8cff"/><text x="347.7" y="317" fill="#8b949e" font-size="11.5">70</text><text x="162" y="343" fill="#c9d1d9" font-size="12.5" text-anchor="end">Databricks</text><rect x="170" y="332" width="165.9" height="17" rx="3" fill="#f778ba"/><text x="342.9" y="343" fill="#8b949e" font-size="11.5">68</text><text x="162" y="369" fill="#c9d1d9" font-size="12.5" text-anchor="end">Abnormal Security</text><rect x="170" y="358" width="161.0" height="17" rx="3" fill="#39c5cf"/><text x="338.0" y="369" fill="#8b949e" font-size="11.5">66</text><text x="162" y="395" fill="#c9d1d9" font-size="12.5" text-anchor="end">Cribl</text><rect x="170" y="384" width="143.9" height="17" rx="3" fill="#ff7b72"/><text x="320.9" y="395" fill="#8b949e" font-size="11.5">59</text><text x="162" y="421" fill="#c9d1d9" font-size="12.5" text-anchor="end">Mercury</text><rect x="170" y="410" width="141.5" height="17" rx="3" fill="#58a6ff"/><text x="318.5" y="421" fill="#8b949e" font-size="11.5">58</text><text x="162" y="447" fill="#c9d1d9" font-size="12.5" text-anchor="end">Vanta</text><rect x="170" y="436" width="139.0" height="17" rx="3" fill="#3fb950"/><text x="316.0" y="447" fill="#8b949e" font-size="11.5">57</text><text x="162" y="473" fill="#c9d1d9" font-size="12.5" text-anchor="end">Anthropic</text><rect x="170" y="462" width="136.6" height="17" rx="3" fill="#d29922"/><text x="313.6" y="473" fill="#8b949e" font-size="11.5">56</text><text x="162" y="499" fill="#c9d1d9" font-size="12.5" text-anchor="end">Hightouch</text><rect x="170" y="488" width="129.3" height="17" rx="3" fill="#bc8cff"/><text x="306.3" y="499" fill="#8b949e" font-size="11.5">53</text></svg>