<svg xmlns="http://www.w3.org/2000/svg" width="760" height="286" viewBox="0 0 760 286" font-family="-apple-system,BlinkMacSystemFont,Segoe UI,Helvetica,Arial,sans-serif"><text x="0" y="20" fill="#c9d1d9" font-size="15" font-weight="600">Open remote roles by function (2,860 postings)</text><text x="102" y="57" fill="#c9d1d9" font-size="12.5" text-anchor="end">gtm</text><rect x="110" y="46" width="560.0" height="17" rx="3" fill="#58a6ff"/><text x="677.0" y="57" fill="#8b949e" font-size="11.5">1,094</text><text x="102" y="83" fill="#c9d1d9" font-size="12.5" text-anchor="end">other</text><rect x="110" y="72" width="237.5" height="17" rx="3" fill="#3fb950"/><text x="354.5" y="83" fill="#8b949e" font-size="11.5">464</text><text x="102" y="109" fill="#c9d1d9" font-size="12.5" text-anchor="end">swe</text><rect x="110" y="98" width="237.0" height="17" rx="3" fill="#d29922"/><text x="354.0" y="109" fill="#8b949e" font-size="11.5">463</text><text x="102" y="135" fill="#c9d1d9" font-size="12.5" text-anchor="end">ops</text><rect x="110" y="124" width="131.6" height="17" rx="3" fill="#bc8cff"/><text x="248.6" y="135" fill="#8b949e" font-size="11.5">257</text><text x="102" y="161" fill="#c9d1d9" font-size="12.5" text-anchor="end">product</text><rect x="110" y="150" width="112.6" height="17" rx="3" fill="#f778ba"/><text x="229.6" y="161" fill="#8b949e" font-size="11.5">220</text><text x="102" y="187" fill="#c9d1d9" font-size="12.5" text-anchor="end">infra</text><rect x="110" y="176" width="78.8" height="17" rx="3" fill="#39c5cf"/><text x="195.8" y="187" fill="#8b949e" font-size="11.5">154</text><text x="102" y="213" fill="#c9d1d9" font-size="12.5" text-anchor="end">ml-ai</text><rect x="110" y="202" width="41.5" height="17" rx="3" fill="#ff7b72"/><text x="158.5" y="213" fill="#8b949e" font-size="11.5">81</text><text x="102" y="239" fill="#c9d1d9" font-size="12.5" text-anchor="end">data</text><rect x="110" y="228" width="39.9" height="17" rx="3" fill="#58a6ff"/><text x="156.9" y="239" fill="#8b949e" font-size="11.5">78</text><text x="102" y="265" fill="#c9d1d9" font-size="12.5" text-anchor="end">research</text><rect x="110" y="254" width="25.1" height="17" rx="3" fill="#3fb950"/><text x="142.1" y="265" fill="#8b949e" font-size="11.5">49</text></svg>