<svg xmlns="http://www.w3.org/2000/svg" width="760" height="286" viewBox="0 0 760 286" font-family="-apple-system,BlinkMacSystemFont,Segoe UI,Helvetica,Arial,sans-serif"><text x="0" y="20" fill="#c9d1d9" font-size="15" font-weight="600">Open remote roles by function (2,785 postings)</text><text x="102" y="57" fill="#c9d1d9" font-size="12.5" text-anchor="end">gtm</text><rect x="110" y="46" width="560.0" height="17" rx="3" fill="#58a6ff"/><text x="677.0" y="57" fill="#8b949e" font-size="11.5">1,042</text><text x="102" y="83" fill="#c9d1d9" font-size="12.5" text-anchor="end">swe</text><rect x="110" y="72" width="241.3" height="17" rx="3" fill="#3fb950"/><text x="358.3" y="83" fill="#8b949e" font-size="11.5">449</text><text x="102" y="109" fill="#c9d1d9" font-size="12.5" text-anchor="end">other</text><rect x="110" y="98" width="228.4" height="17" rx="3" fill="#d29922"/><text x="345.4" y="109" fill="#8b949e" font-size="11.5">425</text><text x="102" y="135" fill="#c9d1d9" font-size="12.5" text-anchor="end">ops</text><rect x="110" y="124" width="142.4" height="17" rx="3" fill="#bc8cff"/><text x="259.4" y="135" fill="#8b949e" font-size="11.5">265</text><text x="102" y="161" fill="#c9d1d9" font-size="12.5" text-anchor="end">product</text><rect x="110" y="150" width="121.5" height="17" rx="3" fill="#f778ba"/><text x="238.5" y="161" fill="#8b949e" font-size="11.5">226</text><text x="102" y="187" fill="#c9d1d9" font-size="12.5" text-anchor="end">infra</text><rect x="110" y="176" width="84.4" height="17" rx="3" fill="#39c5cf"/><text x="201.4" y="187" fill="#8b949e" font-size="11.5">157</text><text x="102" y="213" fill="#c9d1d9" font-size="12.5" text-anchor="end">data</text><rect x="110" y="202" width="45.7" height="17" rx="3" fill="#ff7b72"/><text x="162.7" y="213" fill="#8b949e" font-size="11.5">85</text><text x="102" y="239" fill="#c9d1d9" font-size="12.5" text-anchor="end">ml-ai</text><rect x="110" y="228" width="44.1" height="17" rx="3" fill="#58a6ff"/><text x="161.1" y="239" fill="#8b949e" font-size="11.5">82</text><text x="102" y="265" fill="#c9d1d9" font-size="12.5" text-anchor="end">research</text><rect x="110" y="254" width="29.0" height="17" rx="3" fill="#3fb950"/><text x="146.0" y="265" fill="#8b949e" font-size="11.5">54</text></svg>