<svg xmlns="http://www.w3.org/2000/svg" width="760" height="520" viewBox="0 0 760 520" font-family="-apple-system,BlinkMacSystemFont,Segoe UI,Helvetica,Arial,sans-serif"><text x="0" y="20" fill="#c9d1d9" font-size="15" font-weight="600">Skills in 846 remote engineering postings (2026-09-16)</text><text x="182" y="57" fill="#c9d1d9" font-size="12.5" text-anchor="end">Python</text><rect x="190" y="46" width="480.0" height="17" rx="3" fill="#d29922"/><text x="677.0" y="57" fill="#8b949e" font-size="11.5">48.3%</text><text x="182" y="83" fill="#c9d1d9" font-size="12.5" text-anchor="end">Observability</text><rect x="190" y="72" width="334.5" height="17" rx="3" fill="#ff7b72"/><text x="531.5" y="83" fill="#8b949e" font-size="11.5">33.7%</text><text x="182" y="109" fill="#c9d1d9" font-size="12.5" text-anchor="end">Distributed Systems</text><rect x="190" y="98" width="314.5" height="17" rx="3" fill="#ff7b72"/><text x="511.5" y="109" fill="#8b949e" font-size="11.5">31.7%</text><text x="182" y="135" fill="#c9d1d9" font-size="12.5" text-anchor="end">Machine Learning</text><rect x="190" y="124" width="307.5" height="17" rx="3" fill="#58a6ff"/><text x="504.5" y="135" fill="#8b949e" font-size="11.5">31.0%</text><text x="182" y="161" fill="#c9d1d9" font-size="12.5" text-anchor="end">Go</text><rect x="190" y="150" width="305.1" height="17" rx="3" fill="#d29922"/><text x="502.1" y="161" fill="#8b949e" font-size="11.5">30.7%</text><text x="182" y="187" fill="#c9d1d9" font-size="12.5" text-anchor="end">AI Agents</text><rect x="190" y="176" width="288.7" height="17" rx="3" fill="#bc8cff"/><text x="485.7" y="187" fill="#8b949e" font-size="11.5">29.1%</text><text x="182" y="213" fill="#c9d1d9" font-size="12.5" text-anchor="end">LLMs</text><rect x="190" y="202" width="287.5" height="17" rx="3" fill="#bc8cff"/><text x="484.5" y="213" fill="#8b949e" font-size="11.5">29.0%</text><text x="182" y="239" fill="#c9d1d9" font-size="12.5" text-anchor="end">AWS</text><rect x="190" y="228" width="266.4" height="17" rx="3" fill="#f778ba"/><text x="463.4" y="239" fill="#8b949e" font-size="11.5">26.8%</text><text x="182" y="265" fill="#c9d1d9" font-size="12.5" text-anchor="end">Kubernetes</text><rect x="190" y="254" width="261.7" height="17" rx="3" fill="#f778ba"/><text x="458.7" y="265" fill="#8b949e" font-size="11.5">26.4%</text><text x="182" y="291" fill="#c9d1d9" font-size="12.5" text-anchor="end">TypeScript</text><rect x="190" y="280" width="208.9" height="17" rx="3" fill="#d29922"/><text x="405.9" y="291" fill="#8b949e" font-size="11.5">21.0%</text><text x="182" y="317" fill="#c9d1d9" font-size="12.5" text-anchor="end">SQL</text><rect x="190" y="306" width="181.9" height="17" rx="3" fill="#d29922"/><text x="378.9" y="317" fill="#8b949e" font-size="11.5">18.3%</text><text x="182" y="343" fill="#c9d1d9" font-size="12.5" text-anchor="end">Statistics</text><rect x="190" y="332" width="180.7" height="17" rx="3" fill="#58a6ff"/><text x="377.7" y="343" fill="#8b949e" font-size="11.5">18.2%</text><text x="182" y="369" fill="#c9d1d9" font-size="12.5" text-anchor="end">Data Pipelines</text><rect x="190" y="358" width="169.0" height="17" rx="3" fill="#39c5cf"/><text x="366.0" y="369" fill="#8b949e" font-size="11.5">17.0%</text><text x="182" y="395" fill="#c9d1d9" font-size="12.5" text-anchor="end">GCP</text><rect x="190" y="384" width="158.4" height="17" rx="3" fill="#f778ba"/><text x="355.4" y="395" fill="#8b949e" font-size="11.5">16.0%</text><text x="182" y="421" fill="#c9d1d9" font-size="12.5" text-anchor="end">CI/CD</text><rect x="190" y="410" width="154.9" height="17" rx="3" fill="#ff7b72"/><text x="351.9" y="421" fill="#8b949e" font-size="11.5">15.6%</text><text x="182" y="447" fill="#c9d1d9" font-size="12.5" text-anchor="end">Terraform</text><rect x="190" y="436" width="143.2" height="17" rx="3" fill="#f778ba"/><text x="340.2" y="447" fill="#8b949e" font-size="11.5">14.4%</text><text x="182" y="473" fill="#c9d1d9" font-size="12.5" text-anchor="end">Java</text><rect x="190" y="462" width="133.8" height="17" rx="3" fill="#d29922"/><text x="330.8" y="473" fill="#8b949e" font-size="11.5">13.5%</text><text x="182" y="499" fill="#c9d1d9" font-size="12.5" text-anchor="end">React</text><rect x="190" y="488" width="123.2" height="17" rx="3" fill="#3fb950"/><text x="320.2" y="499" fill="#8b949e" font-size="11.5">12.4%</text></svg>