<svg xmlns="http://www.w3.org/2000/svg" width="760" height="520" viewBox="0 0 760 520" font-family="-apple-system,BlinkMacSystemFont,Segoe UI,Helvetica,Arial,sans-serif"><text x="0" y="20" fill="#c9d1d9" font-size="15" font-weight="600">Skills in 832 remote engineering postings (2026-10-06)</text><text x="182" y="57" fill="#c9d1d9" font-size="12.5" text-anchor="end">Python</text><rect x="190" y="46" width="480.0" height="17" rx="3" fill="#d29922"/><text x="677.0" y="57" fill="#8b949e" font-size="11.5">44.6%</text><text x="182" y="83" fill="#c9d1d9" font-size="12.5" text-anchor="end">Observability</text><rect x="190" y="72" width="385.6" height="17" rx="3" fill="#ff7b72"/><text x="582.6" y="83" fill="#8b949e" font-size="11.5">35.8%</text><text x="182" y="109" fill="#c9d1d9" font-size="12.5" text-anchor="end">Distributed Systems</text><rect x="190" y="98" width="362.3" height="17" rx="3" fill="#ff7b72"/><text x="559.3" y="109" fill="#8b949e" font-size="11.5">33.7%</text><text x="182" y="135" fill="#c9d1d9" font-size="12.5" text-anchor="end">Go</text><rect x="190" y="124" width="323.5" height="17" rx="3" fill="#d29922"/><text x="520.5" y="135" fill="#8b949e" font-size="11.5">30.0%</text><text x="182" y="161" fill="#c9d1d9" font-size="12.5" text-anchor="end">Machine Learning</text><rect x="190" y="150" width="315.7" height="17" rx="3" fill="#58a6ff"/><text x="512.7" y="161" fill="#8b949e" font-size="11.5">29.3%</text><text x="182" y="187" fill="#c9d1d9" font-size="12.5" text-anchor="end">LLMs</text><rect x="190" y="176" width="302.7" height="17" rx="3" fill="#bc8cff"/><text x="499.7" y="187" fill="#8b949e" font-size="11.5">28.1%</text><text x="182" y="213" fill="#c9d1d9" font-size="12.5" text-anchor="end">AI Agents</text><rect x="190" y="202" width="285.9" height="17" rx="3" fill="#bc8cff"/><text x="482.9" y="213" fill="#8b949e" font-size="11.5">26.6%</text><text x="182" y="239" fill="#c9d1d9" font-size="12.5" text-anchor="end">AWS</text><rect x="190" y="228" width="282.0" height="17" rx="3" fill="#f778ba"/><text x="479.0" y="239" fill="#8b949e" font-size="11.5">26.2%</text><text x="182" y="265" fill="#c9d1d9" font-size="12.5" text-anchor="end">Kubernetes</text><rect x="190" y="254" width="254.9" height="17" rx="3" fill="#f778ba"/><text x="451.9" y="265" fill="#8b949e" font-size="11.5">23.7%</text><text x="182" y="291" fill="#c9d1d9" font-size="12.5" text-anchor="end">TypeScript</text><rect x="190" y="280" width="219.9" height="17" rx="3" fill="#d29922"/><text x="416.9" y="291" fill="#8b949e" font-size="11.5">20.4%</text><text x="182" y="317" fill="#c9d1d9" font-size="12.5" text-anchor="end">Statistics</text><rect x="190" y="306" width="209.6" height="17" rx="3" fill="#58a6ff"/><text x="406.6" y="317" fill="#8b949e" font-size="11.5">19.5%</text><text x="182" y="343" fill="#c9d1d9" font-size="12.5" text-anchor="end">SQL</text><rect x="190" y="332" width="188.9" height="17" rx="3" fill="#d29922"/><text x="385.9" y="343" fill="#8b949e" font-size="11.5">17.5%</text><text x="182" y="369" fill="#c9d1d9" font-size="12.5" text-anchor="end">GCP</text><rect x="190" y="358" width="176.0" height="17" rx="3" fill="#f778ba"/><text x="373.0" y="369" fill="#8b949e" font-size="11.5">16.3%</text><text x="182" y="395" fill="#c9d1d9" font-size="12.5" text-anchor="end">Data Pipelines</text><rect x="190" y="384" width="176.0" height="17" rx="3" fill="#39c5cf"/><text x="373.0" y="395" fill="#8b949e" font-size="11.5">16.3%</text><text x="182" y="421" fill="#c9d1d9" font-size="12.5" text-anchor="end">CI/CD</text><rect x="190" y="410" width="170.8" height="17" rx="3" fill="#ff7b72"/><text x="367.8" y="421" fill="#8b949e" font-size="11.5">15.9%</text><text x="182" y="447" fill="#c9d1d9" font-size="12.5" text-anchor="end">React</text><rect x="190" y="436" width="164.3" height="17" rx="3" fill="#3fb950"/><text x="361.3" y="447" fill="#8b949e" font-size="11.5">15.3%</text><text x="182" y="473" fill="#c9d1d9" font-size="12.5" text-anchor="end">Terraform</text><rect x="190" y="462" width="154.0" height="17" rx="3" fill="#f778ba"/><text x="351.0" y="473" fill="#8b949e" font-size="11.5">14.3%</text><text x="182" y="499" fill="#c9d1d9" font-size="12.5" text-anchor="end">Java</text><rect x="190" y="488" width="143.6" height="17" rx="3" fill="#d29922"/><text x="340.6" y="499" fill="#8b949e" font-size="11.5">13.3%</text></svg>