<svg xmlns="http://www.w3.org/2000/svg" width="760" height="520" viewBox="0 0 760 520" font-family="-apple-system,BlinkMacSystemFont,Segoe UI,Helvetica,Arial,sans-serif"><text x="0" y="20" fill="#c9d1d9" font-size="15" font-weight="600">Skills in 880 remote engineering postings (2026-09-04)</text><text x="182" y="57" fill="#c9d1d9" font-size="12.5" text-anchor="end">Python</text><rect x="190" y="46" width="480.0" height="17" rx="3" fill="#d29922"/><text x="677.0" y="57" fill="#8b949e" font-size="11.5">48.6%</text><text x="182" y="83" fill="#c9d1d9" font-size="12.5" text-anchor="end">Observability</text><rect x="190" y="72" width="335.3" height="17" rx="3" fill="#ff7b72"/><text x="532.3" y="83" fill="#8b949e" font-size="11.5">34.0%</text><text x="182" y="109" fill="#c9d1d9" font-size="12.5" text-anchor="end">Distributed Systems</text><rect x="190" y="98" width="317.4" height="17" rx="3" fill="#ff7b72"/><text x="514.4" y="109" fill="#8b949e" font-size="11.5">32.2%</text><text x="182" y="135" fill="#c9d1d9" font-size="12.5" text-anchor="end">Machine Learning</text><rect x="190" y="124" width="310.7" height="17" rx="3" fill="#58a6ff"/><text x="507.7" y="135" fill="#8b949e" font-size="11.5">31.5%</text><text x="182" y="161" fill="#c9d1d9" font-size="12.5" text-anchor="end">Go</text><rect x="190" y="150" width="302.8" height="17" rx="3" fill="#d29922"/><text x="499.8" y="161" fill="#8b949e" font-size="11.5">30.7%</text><text x="182" y="187" fill="#c9d1d9" font-size="12.5" text-anchor="end">AI Agents</text><rect x="190" y="176" width="293.8" height="17" rx="3" fill="#bc8cff"/><text x="490.8" y="187" fill="#8b949e" font-size="11.5">29.8%</text><text x="182" y="213" fill="#c9d1d9" font-size="12.5" text-anchor="end">LLMs</text><rect x="190" y="202" width="280.4" height="17" rx="3" fill="#bc8cff"/><text x="477.4" y="213" fill="#8b949e" font-size="11.5">28.4%</text><text x="182" y="239" fill="#c9d1d9" font-size="12.5" text-anchor="end">Kubernetes</text><rect x="190" y="228" width="270.3" height="17" rx="3" fill="#f778ba"/><text x="467.3" y="239" fill="#8b949e" font-size="11.5">27.4%</text><text x="182" y="265" fill="#c9d1d9" font-size="12.5" text-anchor="end">AWS</text><rect x="190" y="254" width="266.9" height="17" rx="3" fill="#f778ba"/><text x="463.9" y="265" fill="#8b949e" font-size="11.5">27.0%</text><text x="182" y="291" fill="#c9d1d9" font-size="12.5" text-anchor="end">TypeScript</text><rect x="190" y="280" width="209.7" height="17" rx="3" fill="#d29922"/><text x="406.7" y="291" fill="#8b949e" font-size="11.5">21.2%</text><text x="182" y="317" fill="#c9d1d9" font-size="12.5" text-anchor="end">Statistics</text><rect x="190" y="306" width="195.1" height="17" rx="3" fill="#58a6ff"/><text x="392.1" y="317" fill="#8b949e" font-size="11.5">19.8%</text><text x="182" y="343" fill="#c9d1d9" font-size="12.5" text-anchor="end">SQL</text><rect x="190" y="332" width="175.0" height="17" rx="3" fill="#d29922"/><text x="372.0" y="343" fill="#8b949e" font-size="11.5">17.7%</text><text x="182" y="369" fill="#c9d1d9" font-size="12.5" text-anchor="end">GCP</text><rect x="190" y="358" width="167.1" height="17" rx="3" fill="#f778ba"/><text x="364.1" y="369" fill="#8b949e" font-size="11.5">16.9%</text><text x="182" y="395" fill="#c9d1d9" font-size="12.5" text-anchor="end">Data Pipelines</text><rect x="190" y="384" width="161.5" height="17" rx="3" fill="#39c5cf"/><text x="358.5" y="395" fill="#8b949e" font-size="11.5">16.4%</text><text x="182" y="421" fill="#c9d1d9" font-size="12.5" text-anchor="end">CI/CD</text><rect x="190" y="410" width="157.0" height="17" rx="3" fill="#ff7b72"/><text x="354.0" y="421" fill="#8b949e" font-size="11.5">15.9%</text><text x="182" y="447" fill="#c9d1d9" font-size="12.5" text-anchor="end">Terraform</text><rect x="190" y="436" width="152.5" height="17" rx="3" fill="#f778ba"/><text x="349.5" y="447" fill="#8b949e" font-size="11.5">15.5%</text><text x="182" y="473" fill="#c9d1d9" font-size="12.5" text-anchor="end">Java</text><rect x="190" y="462" width="146.9" height="17" rx="3" fill="#d29922"/><text x="343.9" y="473" fill="#8b949e" font-size="11.5">14.9%</text><text x="182" y="499" fill="#c9d1d9" font-size="12.5" text-anchor="end">React</text><rect x="190" y="488" width="125.6" height="17" rx="3" fill="#3fb950"/><text x="322.6" y="499" fill="#8b949e" font-size="11.5">12.7%</text></svg>