<svg xmlns="http://www.w3.org/2000/svg" width="760" height="320" viewBox="0 0 760 320" font-family="-apple-system,BlinkMacSystemFont,Segoe UI,Helvetica,Arial,sans-serif"><text x="0" y="20" fill="#c9d1d9" font-size="15" font-weight="600">Skill share over time</text><line x1="52" y1="46.0" x2="610" y2="46.0" stroke="#8b949e" stroke-opacity="0.22"/><text x="44" y="50.0" fill="#8b949e" font-size="10.5" text-anchor="end">27%</text><line x1="52" y1="106.0" x2="610" y2="106.0" stroke="#8b949e" stroke-opacity="0.22"/><text x="44" y="110.0" fill="#8b949e" font-size="10.5" text-anchor="end">20%</text><line x1="52" y1="166.0" x2="610" y2="166.0" stroke="#8b949e" stroke-opacity="0.22"/><text x="44" y="170.0" fill="#8b949e" font-size="10.5" text-anchor="end">13%</text><line x1="52" y1="226.0" x2="610" y2="226.0" stroke="#8b949e" stroke-opacity="0.22"/><text x="44" y="230.0" fill="#8b949e" font-size="10.5" text-anchor="end">7%</text><line x1="52" y1="286.0" x2="610" y2="286.0" stroke="#8b949e" stroke-opacity="0.22"/><text x="44" y="290.0" fill="#8b949e" font-size="10.5" text-anchor="end">0%</text><text x="52.0" y="308" fill="#8b949e" font-size="10.5" text-anchor="middle">08-27</text><text x="98.5" y="308" fill="#8b949e" font-size="10.5" text-anchor="middle">08-29</text><text x="145.0" y="308" fill="#8b949e" font-size="10.5" text-anchor="middle">08-31</text><text x="191.5" y="308" fill="#8b949e" font-size="10.5" text-anchor="middle">09-02</text><text x="238.0" y="308" fill="#8b949e" font-size="10.5" text-anchor="middle">09-04</text><text x="284.5" y="308" fill="#8b949e" font-size="10.5" text-anchor="middle">09-06</text><text x="331.0" y="308" fill="#8b949e" font-size="10.5" text-anchor="middle">09-08</text><text x="377.5" y="308" fill="#8b949e" font-size="10.5" text-anchor="middle">09-10</text><text x="424.0" y="308" fill="#8b949e" font-size="10.5" text-anchor="middle">09-12</text><text x="470.5" y="308" fill="#8b949e" font-size="10.5" text-anchor="middle">09-14</text><text x="517.0" y="308" fill="#8b949e" font-size="10.5" text-anchor="middle">09-16</text><text x="563.5" y="308" fill="#8b949e" font-size="10.5" text-anchor="middle">09-18</text><text x="610.0" y="308" fill="#8b949e" font-size="10.5" text-anchor="middle">09-20</text><path d="M52.0,78.7 L75.2,77.3 L98.5,81.4 L121.8,81.3 L145.0,80.1 L168.2,79.5 L191.5,82.2 L214.8,80.1 L238.0,81.5 L261.2,81.6 L284.5,81.1 L307.8,82.4 L331.0,82.6 L354.2,83.5 L377.5,80.5 L400.8,80.5 L424.0,82.4 L447.2,82.4 L470.5,82.3 L493.8,83.0 L517.0,84.4 L540.2,85.4 L563.5,86.6 L586.8,87.1 L610.0,87.1" fill="none" stroke="#58a6ff" stroke-width="2.2" stroke-linejoin="round"/><circle cx="610.0" cy="87.1" r="3.2" fill="#58a6ff"/><text x="620" y="60" fill="#58a6ff" font-size="12">Python</text><path d="M52.0,121.9 L75.2,124.3 L98.5,128.0 L121.8,127.3 L145.0,127.9 L168.2,127.5 L191.5,131.9 L214.8,129.0 L238.0,129.3 L261.2,129.6 L284.5,129.6 L307.8,130.2 L331.0,129.4 L354.2,129.6 L377.5,127.6 L400.8,128.6 L424.0,131.4 L447.2,130.9 L470.5,131.1 L493.8,130.6 L517.0,130.8 L540.2,130.7 L563.5,127.2 L586.8,124.9 L610.0,124.8" fill="none" stroke="#3fb950" stroke-width="2.2" stroke-linejoin="round"/><circle cx="610.0" cy="124.8" r="3.2" fill="#3fb950"/><text x="620" y="79" fill="#3fb950" font-size="12">Observability</text><path d="M52.0,155.2 L75.2,155.4 L98.5,165.1 L121.8,164.5 L145.0,164.4 L168.2,166.2 L191.5,183.8 L214.8,182.6 L238.0,182.9 L261.2,181.6 L284.5,181.0 L307.8,182.3 L331.0,182.6 L354.2,181.0 L377.5,180.1 L400.8,181.5 L424.0,182.2 L447.2,182.1 L470.5,181.7 L493.8,181.9 L517.0,184.4 L540.2,183.7 L563.5,184.0 L586.8,181.6 L610.0,181.4" fill="none" stroke="#d29922" stroke-width="2.2" stroke-linejoin="round"/><circle cx="610.0" cy="181.4" r="3.2" fill="#d29922"/><text x="620" y="98" fill="#d29922" font-size="12">Distributed Systems</text><path d="M52.0,132.2 L75.2,130.4 L98.5,130.3 L121.8,130.6 L145.0,130.1 L168.2,130.1 L191.5,125.1 L214.8,126.3 L238.0,128.1 L261.2,129.6 L284.5,129.6 L307.8,130.2 L331.0,130.9 L354.2,131.1 L377.5,130.3 L400.8,131.8 L424.0,131.0 L447.2,131.3 L470.5,131.1 L493.8,132.5 L517.0,134.1 L540.2,132.3 L563.5,131.6 L586.8,131.6 L610.0,131.8" fill="none" stroke="#bc8cff" stroke-width="2.2" stroke-linejoin="round"/><circle cx="610.0" cy="131.8" r="3.2" fill="#bc8cff"/><text x="620" y="117" fill="#bc8cff" font-size="12">Machine Learning</text><path d="M52.0,177.5 L75.2,180.4 L98.5,184.7 L121.8,184.1 L145.0,184.4 L168.2,184.6 L191.5,190.0 L214.8,189.4 L238.0,189.7 L261.2,189.0 L284.5,188.7 L307.8,189.7 L331.0,190.1 L354.2,190.5 L377.5,189.4 L400.8,188.6 L424.0,190.0 L447.2,189.7 L470.5,189.0 L493.8,189.8 L517.0,189.6 L540.2,188.6 L563.5,191.0 L586.8,190.0 L610.0,190.2" fill="none" stroke="#f778ba" stroke-width="2.2" stroke-linejoin="round"/><circle cx="610.0" cy="190.2" r="3.2" fill="#f778ba"/><text x="620" y="136" fill="#f778ba" font-size="12">Go</text><path d="M52.0,145.7 L75.2,145.2 L98.5,144.6 L121.8,143.7 L145.0,144.2 L168.2,144.4 L191.5,142.9 L214.8,145.5 L238.0,146.1 L261.2,144.3 L284.5,144.3 L307.8,144.6 L331.0,144.8 L354.2,142.0 L377.5,140.7 L400.8,141.7 L424.0,144.6 L447.2,144.8 L470.5,144.7 L493.8,147.9 L517.0,148.3 L540.2,148.5 L563.5,147.9 L586.8,148.9 L610.0,148.9" fill="none" stroke="#39c5cf" stroke-width="2.2" stroke-linejoin="round"/><circle cx="610.0" cy="148.9" r="3.2" fill="#39c5cf"/><text x="620" y="155" fill="#39c5cf" font-size="12">LLMs</text></svg>