<svg xmlns="http://www.w3.org/2000/svg" width="760" height="320" viewBox="0 0 760 320" font-family="-apple-system,BlinkMacSystemFont,Segoe UI,Helvetica,Arial,sans-serif"><text x="0" y="20" fill="#c9d1d9" font-size="15" font-weight="600">Skill share over time</text><line x1="52" y1="46.0" x2="610" y2="46.0" stroke="#8b949e" stroke-opacity="0.22"/><text x="44" y="50.0" fill="#8b949e" font-size="10.5" text-anchor="end">27%</text><line x1="52" y1="106.0" x2="610" y2="106.0" stroke="#8b949e" stroke-opacity="0.22"/><text x="44" y="110.0" fill="#8b949e" font-size="10.5" text-anchor="end">20%</text><line x1="52" y1="166.0" x2="610" y2="166.0" stroke="#8b949e" stroke-opacity="0.22"/><text x="44" y="170.0" fill="#8b949e" font-size="10.5" text-anchor="end">13%</text><line x1="52" y1="226.0" x2="610" y2="226.0" stroke="#8b949e" stroke-opacity="0.22"/><text x="44" y="230.0" fill="#8b949e" font-size="10.5" text-anchor="end">7%</text><line x1="52" y1="286.0" x2="610" y2="286.0" stroke="#8b949e" stroke-opacity="0.22"/><text x="44" y="290.0" fill="#8b949e" font-size="10.5" text-anchor="end">0%</text><text x="52.0" y="308" fill="#8b949e" font-size="10.5" text-anchor="middle">08-27</text><text x="106.0" y="308" fill="#8b949e" font-size="10.5" text-anchor="middle">08-30</text><text x="160.0" y="308" fill="#8b949e" font-size="10.5" text-anchor="middle">09-02</text><text x="214.0" y="308" fill="#8b949e" font-size="10.5" text-anchor="middle">09-05</text><text x="268.0" y="308" fill="#8b949e" font-size="10.5" text-anchor="middle">09-08</text><text x="322.0" y="308" fill="#8b949e" font-size="10.5" text-anchor="middle">09-11</text><text x="376.0" y="308" fill="#8b949e" font-size="10.5" text-anchor="middle">09-14</text><text x="430.0" y="308" fill="#8b949e" font-size="10.5" text-anchor="middle">09-17</text><text x="484.0" y="308" fill="#8b949e" font-size="10.5" text-anchor="middle">09-20</text><text x="538.0" y="308" fill="#8b949e" font-size="10.5" text-anchor="middle">09-23</text><text x="592.0" y="308" fill="#8b949e" font-size="10.5" text-anchor="middle">09-26</text><path d="M52.0,78.7 L70.0,77.3 L88.0,81.4 L106.0,81.3 L124.0,80.1 L142.0,79.5 L160.0,82.2 L178.0,80.1 L196.0,81.5 L214.0,81.6 L232.0,81.1 L250.0,82.4 L268.0,82.6 L286.0,83.5 L304.0,80.5 L322.0,80.5 L340.0,82.4 L358.0,82.4 L376.0,82.3 L394.0,83.0 L412.0,84.4 L430.0,85.4 L448.0,86.6 L466.0,87.1 L484.0,87.1 L502.0,88.4 L520.0,88.6 L538.0,87.2 L556.0,84.5 L574.0,87.8 L592.0,85.7 L610.0,85.6" fill="none" stroke="#58a6ff" stroke-width="2.2" stroke-linejoin="round"/><circle cx="610.0" cy="85.6" r="3.2" fill="#58a6ff"/><text x="620" y="60" fill="#58a6ff" font-size="12">Python</text><path d="M52.0,121.9 L70.0,124.3 L88.0,128.0 L106.0,127.3 L124.0,127.9 L142.0,127.5 L160.0,131.9 L178.0,129.0 L196.0,129.3 L214.0,129.6 L232.0,129.6 L250.0,130.2 L268.0,129.4 L286.0,129.6 L304.0,127.6 L322.0,128.6 L340.0,131.4 L358.0,130.9 L376.0,131.1 L394.0,130.6 L412.0,130.8 L430.0,130.7 L448.0,127.2 L466.0,124.9 L484.0,124.8 L502.0,122.4 L520.0,119.7 L538.0,116.7 L556.0,116.0 L574.0,116.6 L592.0,115.8 L610.0,116.1" fill="none" stroke="#3fb950" stroke-width="2.2" stroke-linejoin="round"/><circle cx="610.0" cy="116.1" r="3.2" fill="#3fb950"/><text x="620" y="79" fill="#3fb950" font-size="12">Observability</text><path d="M52.0,155.2 L70.0,155.4 L88.0,165.1 L106.0,164.5 L124.0,164.4 L142.0,166.2 L160.0,183.8 L178.0,182.6 L196.0,182.9 L214.0,181.6 L232.0,181.0 L250.0,182.3 L268.0,182.6 L286.0,181.0 L304.0,180.1 L322.0,181.5 L340.0,182.2 L358.0,182.1 L376.0,181.7 L394.0,181.9 L412.0,184.4 L430.0,183.7 L448.0,184.0 L466.0,181.6 L484.0,181.4 L502.0,180.0 L520.0,177.8 L538.0,175.6 L556.0,173.5 L574.0,176.1 L592.0,174.1 L610.0,174.0" fill="none" stroke="#d29922" stroke-width="2.2" stroke-linejoin="round"/><circle cx="610.0" cy="174.0" r="3.2" fill="#d29922"/><text x="620" y="98" fill="#d29922" font-size="12">Distributed Systems</text><path d="M52.0,132.2 L70.0,130.4 L88.0,130.3 L106.0,130.6 L124.0,130.1 L142.0,130.1 L160.0,125.1 L178.0,126.3 L196.0,128.1 L214.0,129.6 L232.0,129.6 L250.0,130.2 L268.0,130.9 L286.0,131.1 L304.0,130.3 L322.0,131.8 L340.0,131.0 L358.0,131.3 L376.0,131.1 L394.0,132.5 L412.0,134.1 L430.0,132.3 L448.0,131.6 L466.0,131.6 L484.0,131.8 L502.0,131.9 L520.0,132.8 L538.0,133.4 L556.0,132.3 L574.0,131.5 L592.0,128.1 L610.0,128.1" fill="none" stroke="#bc8cff" stroke-width="2.2" stroke-linejoin="round"/><circle cx="610.0" cy="128.1" r="3.2" fill="#bc8cff"/><text x="620" y="117" fill="#bc8cff" font-size="12">Machine Learning</text><path d="M52.0,145.7 L70.0,145.2 L88.0,144.6 L106.0,143.7 L124.0,144.2 L142.0,144.4 L160.0,142.9 L178.0,145.5 L196.0,146.1 L214.0,144.3 L232.0,144.3 L250.0,144.6 L268.0,144.8 L286.0,142.0 L304.0,140.7 L322.0,141.7 L340.0,144.6 L358.0,144.8 L376.0,144.7 L394.0,147.9 L412.0,148.3 L430.0,148.5 L448.0,147.9 L466.0,148.9 L484.0,148.9 L502.0,147.8 L520.0,147.6 L538.0,146.4 L556.0,147.0 L574.0,147.2 L592.0,144.6 L610.0,144.5" fill="none" stroke="#f778ba" stroke-width="2.2" stroke-linejoin="round"/><circle cx="610.0" cy="144.5" r="3.2" fill="#f778ba"/><text x="620" y="136" fill="#f778ba" font-size="12">LLMs</text><path d="M52.0,177.5 L70.0,180.4 L88.0,184.7 L106.0,184.1 L124.0,184.4 L142.0,184.6 L160.0,190.0 L178.0,189.4 L196.0,189.7 L214.0,189.0 L232.0,188.7 L250.0,189.7 L268.0,190.1 L286.0,190.5 L304.0,189.4 L322.0,188.6 L340.0,190.0 L358.0,189.7 L376.0,189.0 L394.0,189.8 L412.0,189.6 L430.0,188.6 L448.0,191.0 L466.0,190.0 L484.0,190.2 L502.0,189.8 L520.0,187.2 L538.0,185.9 L556.0,184.0 L574.0,185.3 L592.0,186.8 L610.0,187.1" fill="none" stroke="#39c5cf" stroke-width="2.2" stroke-linejoin="round"/><circle cx="610.0" cy="187.1" r="3.2" fill="#39c5cf"/><text x="620" y="155" fill="#39c5cf" font-size="12">Go</text></svg>